# xmcd CD database file
#
# Track frame offsets:
#	150
#	47046
#	83376
#	111157
#	140630
#	183349
#	208160
#	241664
#
# Disc length: 3853 seconds
#
# Revision: 0
# Processed by: cddbd v1.5.2PL0 Copyright (c) Steve Scherf et al.
# Submitted via: CDex 1.51
#
DISCID=650f0b08
DTITLE=Iván Melón Lewis Quintet - Travesía
DYEAR=2011
DGENRE=Jazz
TTITLE0=Notas de La Habana
TTITLE1=Annechu
TTITLE2=Tendencias
TTITLE3=Big Kenny
TTITLE4=El Negro también
TTITLE5=La tarde
TTITLE6=Caja de música
TTITLE7=Movimiento
EXTD=YEAR: 2011
EXTT0=
EXTT1=
EXTT2=
EXTT3=
EXTT4=
EXTT5=
EXTT6=
EXTT7=
PLAYORDER=
